<svg xmlns="http://www.w3.org/2000/svg" width="44.501" height="44.501" viewBox="0 0 44.501 44.501">
  <g id="Group_4818" data-name="Group 4818" transform="translate(-631.208 -26)">
    <path id="Path_2934" data-name="Path 2934" d="M652.3,51.032h2.318a19.682,19.682,0,0,1,17.092,9.927A22.236,22.236,0,0,0,653.459,26h0a22.234,22.234,0,0,0-18.249,34.959A19.679,19.679,0,0,1,652.3,51.032Z" transform="translate(0 0)" fill="#d86767"/>
    <path id="Path_2935" data-name="Path 2935" d="M651.615,58.969h0a22.215,22.215,0,0,0,18.251-9.542A19.682,19.682,0,0,0,652.774,39.5h-2.318a19.679,19.679,0,0,0-17.09,9.927A22.213,22.213,0,0,0,651.615,58.969Z" transform="translate(1.843 11.532)" fill="#fff"/>
    <circle id="Ellipse_67" data-name="Ellipse 67" cx="8.407" cy="8.407" r="8.407" transform="translate(645.052 31.9)" fill="#fff"/>
  </g>
</svg>
